<?xml version="1.0" encoding="UTF-8"?>
<svg version="1.1" xmlns="http://www.w3.org/2000/svg" width="511" height="210">
<path d="M0 0 C0.93815835 0.00071251 1.8763167 0.00142502 2.84290409 0.00215912 C3.91766184 0.00064346 4.99241959 -0.00087219 6.09974575 -0.00243378 C7.29060095 0.00113632 8.48145615 0.00470642 9.70839787 0.0083847 C10.95551863 0.00840988 12.20263939 0.00843506 13.48755169 0.008461 C16.93633819 0.00997852 20.38505251 0.01622743 23.8338244 0.02490044 C26.01713329 0.02988222 28.20043687 0.0330181 30.38374996 0.03549957 C62.67440882 0.07230499 94.96375233 0.30384291 127.2532171 0.56900024 C134.88440781 0.63156488 142.51562196 0.69103475 150.14683831 0.7503767 C165.72801263 0.87160185 181.30915687 0.99629541 196.89028263 1.12361908 C197.09703207 6.91260327 196.48190342 11.55294631 194.89028263 17.12361908 C179.85122666 16.505066 164.93950479 14.99092221 149.97622013 13.40096283 C147.42365811 13.13296675 144.87105522 12.86535978 142.31841373 12.59812164 C136.33691144 11.97097903 130.35582898 11.33997775 124.37494147 10.7070089 C117.55277301 9.98523074 110.73007393 9.26853039 103.90733123 8.55220401 C89.90106127 7.08155986 75.89545153 5.60470947 61.89028263 4.12361908 C61.70852482 5.6646933 61.70852482 5.6646933 61.52309513 7.23690033 C61.35399656 8.63666073 61.18471576 10.03639913 61.01528263 11.43611908 C60.93664982 12.10707611 60.85801701 12.77803314 60.77700138 13.4693222 C60.04947935 19.42940651 58.9704417 25.18274422 57.89028263 31.12361908 C101.78028263 31.45361908 145.67028263 31.78361908 190.89028263 32.12361908 C190.89028263 39.21535889 190.72474621 42.81765052 188.89028263 49.12361908 C175.29387998 48.32844843 161.76249622 46.83715325 148.21840763 45.43611908 C145.64246772 45.1708217 143.0665195 44.90560491 140.49056339 44.64046478 C135.12136402 44.08723644 129.75234731 43.53227724 124.38344669 42.97615814 C118.17720245 42.33335822 111.9704981 41.69514322 105.7635653 41.05902958 C99.77135569 40.44471289 93.77960111 39.82607149 87.7880106 39.20574188 C85.2443229 38.94294044 82.70050439 38.68140203 80.15655613 38.42113495 C76.61850901 38.05874898 73.08100688 37.69144186 69.54360294 37.32283783 C68.48810246 37.21579529 67.43260197 37.10875275 66.34511662 36.99846649 C64.90727818 36.84711746 64.90727818 36.84711746 63.44039249 36.69271088 C62.60499565 36.60643936 61.76959881 36.52016785 60.90888691 36.43128204 C58.89028263 36.12361908 58.89028263 36.12361908 56.89028263 35.12361908 C56.77434757 35.85999603 56.65841251 36.59637299 56.53896427 37.35506439 C56.01208279 40.69487684 55.4824631 44.03424945 54.95278263 47.37361908 C54.77038029 48.53248627 54.58797794 49.69135345 54.40004826 50.88533783 C54.22280216 52.00037689 54.04555607 53.11541595 53.86293888 54.26424408 C53.61942692 55.8038681 53.61942692 55.8038681 53.37099552 57.37459564 C52.97426549 59.64335143 52.44888633 61.88920429 51.89028263 64.12361908 C96.11028263 64.12361908 140.33028263 64.12361908 185.89028263 64.12361908 C184.89028263 77.12361908 184.89028263 77.12361908 183.89028263 81.12361908 C169.92168178 80.38184769 156.03090946 78.87810849 142.12075138 77.43611908 C139.54624532 77.17077693 136.97172626 76.90556092 134.39719486 76.64046478 C129.03393995 76.08753759 123.67090039 75.53258167 118.30800724 74.97615814 C112.10915787 74.33305254 105.90981432 73.69487795 99.7102167 73.05902958 C93.72280654 72.44474695 87.73585425 71.82611896 81.74907207 71.20574188 C79.20817272 70.94296831 76.66714535 70.6814297 74.12599087 70.42113495 C70.59283949 70.0587707 67.06023645 69.69146496 63.5277338 69.32283783 C62.47380436 69.21579529 61.41987492 69.10875275 60.33400822 68.99846649 C59.37689442 68.89756714 58.41978062 68.79666779 57.43366337 68.69271088 C56.59956534 68.60643936 55.76546732 68.52016785 54.9060936 68.43128204 C52.89028263 68.12361908 52.89028263 68.12361908 50.89028263 67.12361908 C50.78715763 68.40236908 50.68403263 69.68111908 50.57778263 70.99861908 C50.05632641 76.24341066 49.24836007 81.42556056 48.39028263 86.62361908 C48.25968449 87.42525482 48.12908634 88.22689056 47.99453068 89.0528183 C47.01405172 94.8760809 47.01405172 94.8760809 45.89028263 97.12361908 C90.11028263 97.12361908 134.33028263 97.12361908 179.89028263 97.12361908 C178.89028263 109.12361908 178.89028263 109.12361908 177.89028263 113.12361908 C162.85122666 112.505066 147.93950479 110.99092221 132.97622013 109.40096283 C130.42365811 109.13296675 127.87105522 108.86535978 125.31841373 108.59812164 C119.33691144 107.97097903 113.35582898 107.33997775 107.37494147 106.7070089 C100.55277301 105.98523074 93.73007393 105.26853039 86.90733123 104.55220401 C72.90106127 103.08155986 58.89545153 101.60470947 44.89028263 100.12361908 C44.85289982 100.79264252 44.81551701 101.46166595 44.77700138 102.15096283 C44.14234614 111.42190702 42.53599326 119.7979255 40.89028263 129.12361908 C84.78028263 129.12361908 128.67028263 129.12361908 173.89028263 129.12361908 C172.89028263 142.12361908 172.89028263 142.12361908 171.89028263 145.12361908 C163.82490133 145.26323347 155.96067836 144.89477145 147.94301701 144.03792572 C146.81627567 143.92248917 145.68953434 143.80705261 144.52864933 143.68811798 C140.84646474 143.30930674 137.16526333 142.92173775 133.48403263 142.53377533 C130.91006437 142.26667429 128.33604824 142.00003425 125.76198673 141.73383331 C120.38898332 141.17688313 115.01641397 140.61600106 109.64418888 140.0515976 C103.43933694 139.39975254 97.23384969 138.75426612 91.0279603 138.11237818 C85.03688924 137.4926615 79.04617785 136.86955456 73.05564213 136.2446804 C70.51354864 135.97966564 67.97138365 135.71533582 65.42914677 135.45170021 C61.88658056 135.08363577 58.34443744 134.71174536 54.80239201 134.33870697 C53.75093998 134.23009338 52.69948795 134.1214798 51.61617374 134.00957489 C50.16987583 133.85605812 50.16987583 133.85605812 48.69435978 133.69944 C47.44013344 133.5680845 47.44013344 133.5680845 46.16056919 133.43407536 C44.01157976 133.14020617 41.98100383 132.6943623 39.89028263 132.12361908 C39.70852482 133.59121674 39.70852482 133.59121674 39.52309513 135.08846283 C39.35404237 136.41270944 39.18475903 137.73692662 39.01528263 139.06111908 C38.85286076 140.34889252 38.69043888 141.63666595 38.52309513 142.96346283 C37.85033591 147.38623181 36.86075227 151.75650571 35.89028263 156.12361908 C57.01028263 155.79361908 78.13028263 155.46361908 99.89028263 155.12361908 C99.56028263 157.10361908 99.23028263 159.08361908 98.89028263 161.12361908 C121.99028263 161.12361908 145.09028263 161.12361908 168.89028263 161.12361908 C168.89028263 168.21535889 168.72474621 171.81765052 166.89028263 178.12361908 C152.35173646 177.41574979 137.9129499 175.66986485 123.45278263 174.06111908 C120.87143485 173.77631983 118.29005487 173.49181219 115.70864201 173.20760345 C109.43548032 172.51630482 103.16272609 171.82140283 96.89028263 171.12361908 C96.84129826 171.71787689 96.79231388 172.3121347 96.74184513 172.92440033 C96.66707951 173.75326752 96.59231388 174.5821347 96.51528263 175.43611908 C96.44567326 176.23662689 96.37606388 177.0371347 96.30434513 177.86190033 C95.69714379 182.64504293 94.75278405 187.3798613 93.89028263 192.12361908 C128.04528263 192.61861908 128.04528263 192.61861908 162.89028263 193.12361908 C161.89028263 206.12361908 161.89028263 206.12361908 160.89028263 210.12361908 C146.35173646 209.41574979 131.9129499 207.66986485 117.45278263 206.06111908 C114.87143485 205.77631983 112.29005487 205.49181219 109.70864201 205.20760345 C103.43548032 204.51630482 97.16272609 203.82140283 90.89028263 203.12361908 C90.56028263 205.43361908 90.23028263 207.74361908 89.89028263 210.12361908 C47.65028263 210.12361908 5.41028263 210.12361908 -38.10971737 210.12361908 C-38.10971737 204.96860964 -37.8724738 200.88789625 -37.00444698 195.90923309 C-36.88546824 195.21725897 -36.7664895 194.52528485 -36.64390534 193.81234181 C-36.24657305 191.50998321 -35.84087419 189.20918163 -35.43515682 186.90828705 C-35.14719968 185.24998369 -34.85976321 183.59158984 -34.57280636 181.9331131 C-33.79264053 177.43286059 -33.00521391 172.93390549 -32.21650243 168.43514395 C-31.38710529 163.69688194 -30.56447293 158.95744573 -29.7411108 154.21813202 C-28.17576469 145.2139335 -26.6044482 136.21078768 -25.03094882 127.20801079 C-23.26059424 117.07738948 -21.49649442 106.94568265 -19.73311961 96.81384444 C-17.57446418 84.41090842 -15.41506386 72.00810419 -13.25017452 59.60625458 C-13.09712134 58.72923051 -12.94406817 57.85220645 -12.78637701 56.9486059 C-12.04528824 52.7021917 -11.30369031 48.45586773 -10.56106186 44.20972252 C-9.22136618 36.54353807 -7.89331638 28.87571237 -6.59564877 21.2022934 C-6.36134925 19.82207779 -6.12700455 18.44186986 -5.89261055 17.0616703 C-5.46361281 14.52921347 -5.03791474 11.99619462 -4.61610794 9.46253014 C-4.43036304 8.367306 -4.24461813 7.27208187 -4.05324459 6.14366913 C-3.89388518 5.19128923 -3.73452578 4.23890934 -3.5703373 3.25766945 C-2.96550339 0.45547628 -2.87989814 0.16874789 0 0 Z " fill="#FFFFFF" transform="translate(203.1097173690796,-0.12361907958984375)"/>
<path d="M0 0 C21.45 0 42.9 0 65 0 C63.875 12.375 63.875 12.375 62.9306488 17.78959656 C62.61305603 19.62973579 62.61305603 19.62973579 62.28904724 21.50704956 C62.05663242 22.82722415 61.82413143 24.14738357 61.59155273 25.4675293 C61.34472303 26.88778701 61.09828444 28.30811275 60.85220337 29.72850037 C60.18887952 33.55073759 59.52014809 37.37201033 58.85037875 41.19312263 C58.14918294 45.19906005 57.4530515 49.20587742 56.75636292 53.21260071 C55.43892909 60.78478985 54.11699841 68.35618658 52.79341608 75.92730314 C51.28567544 84.55314277 49.7830021 93.17986274 48.28073585 101.8066572 C45.19276051 119.53875223 42.09781371 137.2696209 39 155 C59.79 155.33 80.58 155.66 102 156 C100.34787767 174.17334564 96.33775626 192.05956012 93 210 C50.43 210 7.86 210 -36 210 C-33.74996682 191.99973459 -33.74996682 191.99973459 -32.69218445 185.91764832 C-32.57558041 185.24107455 -32.45897637 184.56450079 -32.33883888 183.86742479 C-31.95949632 181.67164602 -31.57490302 179.47682523 -31.19018555 177.28198242 C-30.91197322 175.67818645 -30.6340903 174.07433331 -30.35650635 172.47042847 C-29.6097429 168.16124763 -28.85832838 163.85289024 -28.10592628 159.54469085 C-27.31160344 154.99209862 -26.52141005 150.43878947 -25.73066711 145.88557434 C-24.40087583 138.23194585 -23.06822855 130.5788192 -21.73364258 122.92602539 C-20.20369017 114.1528675 -18.67733663 105.37908997 -17.15316361 96.60492629 C-15.51495099 87.17434495 -13.87442591 77.74416701 -12.23305535 68.31413484 C-11.76783184 65.64059931 -11.30297984 62.96699941 -10.83820152 60.29338646 C-10.09843407 56.03875818 -9.35706002 51.78441244 -8.61459351 47.53025436 C-8.34690252 45.99522523 -8.07966556 44.46011682 -7.81299782 42.92490959 C-5.32304754 28.59413537 -2.64890532 14.30408872 0 0 Z " fill="#FFFFFF" transform="translate(409,0)"/>
<path d="M0 0 C51.81 0 103.62 0 157 0 C157 6.45163662 156.50611013 10.97555946 155 17 C141.19534431 16.29631993 127.47336287 14.76147206 113.73192787 13.30645943 C110.31596056 12.94553332 106.89960444 12.58832722 103.48327637 12.23083496 C94.08836129 11.24707327 84.69403817 10.257707 75.29972076 9.26825714 C66.6768548 8.36011936 58.05386251 7.45322597 49.43039179 6.55084658 C46.04573027 6.1965322 42.66120013 5.84105201 39.27696228 5.48271179 C19.6683377 3.3844048 19.6683377 3.3844048 0 2 C0 1.34 0 0.68 0 0 Z " fill="#FFFFFF" transform="translate(29,32)"/>
<path d="M0 0 C51.81 0 103.62 0 157 0 C157 6.45163662 156.50611013 10.97555946 155 17 C141.19534431 16.29631993 127.47336287 14.76147206 113.73192787 13.30645943 C110.31596056 12.94553332 106.89960444 12.58832722 103.48327637 12.23083496 C94.08836129 11.24707327 84.69403817 10.257707 75.29972076 9.26825714 C66.6768548 8.36011936 58.05386251 7.45322597 49.43039179 6.55084658 C46.04573027 6.1965322 42.66120013 5.84105201 39.27696228 5.48271179 C19.6683377 3.3844048 19.6683377 3.3844048 0 2 C0 1.34 0 0.68 0 0 Z " fill="#FFFFFF" transform="translate(34,0)"/>
<path d="M0 0 C51.81 0 103.62 0 157 0 C157 11.25 157 11.25 155 17 C146.00648654 16.40225302 137.04570064 15.65373543 128.08227539 14.70898438 C126.87537552 14.58364822 125.66847565 14.45831207 124.42500305 14.32917786 C121.16030421 13.98980071 117.89581401 13.64849357 114.63139272 13.30645943 C111.18467597 12.94596575 107.73764497 12.58850393 104.29063416 12.23083496 C94.06764817 11.16952399 83.84515352 10.10350764 73.6227417 9.03668213 C65.66207823 8.20595523 57.7012822 7.37654189 49.74009508 6.55084658 C46.32413119 6.19643919 42.90828968 5.84093302 39.49272346 5.48271179 C19.77556901 3.39036442 19.77556901 3.39036442 0 2 C0 1.34 0 0.68 0 0 Z " fill="#FFFFFF" transform="translate(23,64)"/>
<path d="M0 0 C51.81 0 103.62 0 157 0 C157 6.56353916 156.6957905 10.06473326 155 16 C146.67598212 16.19304691 138.56064696 15.60045263 130.28613281 14.73071289 C128.94617963 14.59393269 127.6061766 14.45764015 126.26612854 14.3217926 C122.6605234 13.9548623 119.05565837 13.5810892 115.45090199 13.20592427 C111.6629558 12.81282179 107.87437936 12.4258862 104.08587646 12.03819275 C97.73085724 11.38698538 91.37627229 10.73167666 85.02197266 10.07348633 C76.87940182 9.23007831 68.73618502 8.39308854 60.59273148 7.55825138 C53.56801069 6.83809261 46.54354782 6.11543024 39.51914883 5.39214015 C38.01670672 5.23747465 36.51425577 5.08289503 35.011796 4.92840123 C30.73020272 4.48813649 26.44875123 4.04654197 22.16752434 3.60272789 C20.2594244 3.4052169 18.35118806 3.20902507 16.44294739 3.01287842 C10.94351082 2.44122261 5.46489372 1.84281252 0 1 C0 0.67 0 0.34 0 0 Z " fill="#FFFFFF" transform="translate(6,161)"/>
<path d="M0 0 C51.81 0 103.62 0 157 0 C157 11.25 157 11.25 156 16 C147.04234087 16.20527837 138.32106404 15.58104609 129.41894531 14.62304688 C127.99852958 14.47473341 126.57805653 14.32696804 125.15753174 14.17970276 C121.33958568 13.7823555 117.52247727 13.37744266 113.70548344 12.97106361 C109.70213463 12.54618052 105.69804428 12.12840275 101.69403076 11.70983887 C94.12905113 10.91795067 86.56474997 10.11976604 79.00067782 9.31926107 C70.38197472 8.40745892 61.76253016 7.50276385 53.1430192 6.59863567 C35.42784885 4.74027516 17.71361903 2.8730869 0 1 C0 0.67 0 0.34 0 0 Z " fill="#FFFFFF" transform="translate(11,129)"/>
<path d="M0 0 C51.81 0 103.62 0 157 0 C157 5.77790229 156.94323854 10.45847359 156 16 C148.50583512 16.16183862 141.22444771 15.52612986 133.77612305 14.73071289 C132.47735229 14.5957692 131.17858154 14.4608255 129.8404541 14.3217926 C126.30060095 13.95392499 122.76136332 13.58041771 119.22220588 13.20592427 C115.50061809 12.813193 111.77845788 12.42596491 108.05635071 12.03819275 C101.00507988 11.30279624 93.95428919 10.56290189 86.90368062 9.82118553 C74.29721961 8.49518451 61.68987258 7.17763928 49.08247787 5.86054987 C44.6675228 5.39915246 40.25274934 4.93606461 35.8381294 4.47147191 C33.74668573 4.25150873 31.65518444 4.03210263 29.56365967 3.81291199 C27.02911642 3.54722595 24.49466835 3.2806294 21.96034241 3.01287842 C14.64678845 2.24793493 7.33062524 1.57914661 0 1 C0 0.67 0 0.34 0 0 Z " fill="#FFFFFF" transform="translate(0,194)"/>
<path d="M0 0 C51.81 0 103.62 0 157 0 C156 13 156 13 155 16 C139.96670636 15.39987792 125.0524728 13.87990535 110.0940907 12.30645943 C106.64565591 11.94470956 103.19669406 11.58805355 99.74778748 11.23083496 C93.23397482 10.55544137 86.72060859 9.87584352 80.20741075 9.19454908 C70.6581939 8.19587646 61.10830197 7.20369639 51.55841732 6.21143341 C50.13968823 6.06401312 48.7209594 5.91659035 47.30223083 5.76916504 C46.60884438 5.69711995 45.91545792 5.62507485 45.20105976 5.55084658 C40.46563147 5.05865474 35.73040909 4.56452051 30.99525452 4.06970215 C29.1021907 3.87225655 29.1021907 3.87225655 27.17088318 3.67082214 C24.83546015 3.4272282 22.50009229 3.18310446 20.16479492 2.93830872 C13.44761759 2.23852417 6.72742638 1.59330031 0 1 C0 0.67 0 0.34 0 0 Z " fill="#FFFFFF" transform="translate(16,97)"/>
</svg>
